{"title":"The.Little.Mermaid.1989.720p.BRrip.cj4thee.Source-YIFY","uid":14417670,"size":629055342,"categoryP":"video","categoryS":"hd___movies","magnet":"?xt=urn:btih:2003ffd212ce611baf1b9d9c3cd25066b7e938f1&amp;dn=The.Little.Mermaid.1989.720p.BRrip.cj4thee.Source-YIFY&amp;tr=udp%3A%2F%2Ftracker.leechers-paradise.org%3A6969&amp;tr=udp%3A%2F%2Fzer0day.ch%3A1337&amp;tr=udp%3A%2F%2Fopen.demonii.com%3A1337&amp;tr=udp%3A%2F%2Ftracker.coppersurfer.tk%3A6969&amp;tr=udp%3A%2F%2Fexodus.desync.com%3A6969","seeders":0,"leechers":2,"uploader":"cj4thee","files":3,"time":1461507853,"description":"The Little Mermaid 1989\r\n\r\nAudio Sync Corrected and re-uploaded\r\n\r\nIMDB RATING: 7.6\r\n\r\n\r\nLoosely based upon the story by Hans Christian Andersen. Ariel, youngest daughter of King Triton, is dissatisfied with life in the sea. She longs to be with the humans above the surface, and is often caught in arguments with her father over those &quot;barbaric fish-eaters&quot;. She goes to meet Ursula, the Sea Witch, to strike a deal, but Ursula has bigger plans for this mermaid and her father.\r\n\r\nScreens: http://imgur.com/mqbNhS3\r\n\r\n\r\nFormat                      : Matroska\r\nFormat version              : Version 4 / Version 2\r\nFile size                   : 599 MiB\r\nDuration                    : 1h 22mn\r\nOverall bit rate            : 1 015 Kbps\r\nEncoded date                : UTC 2016-04-24 09:34:26\r\nWriting application         : mkvmerge v9.1.0 ('Little Earthquakes') 32bit\r\nWriting library             : libebml v1.3.3 + libmatroska v1.4.4\r\n\r\nVideo\r\nID                          : 1\r\nFormat                      : AVC\r\nFormat/Info                 : Advanced Video Codec\r\nFormat profile              :   \r\nFormat settings, CABAC      : Yes\r\nFormat settings, ReFrames   : 9 frames\r\nCodec ID                    : V_MPEG4/ISO/AVC\r\nDuration                    : 1h 22mn\r\nBit rate                    : 918 Kbps\r\nWidth                       : 1 280 pixels\r\nHeight                      : 720 pixels\r\nDisplay aspect ratio        : 16:9\r\nFrame rate mode             : Constant\r\nFrame rate                  : 23.976 (24000/1001) fps\r\nColor space                 : YUV\r\nChroma subsampling          : 4:2:0\r\nBit depth                   : 8 bits\r\nScan type                   : Progressive\r\nBits/(Pixel*Frame)          : 0.042\r\nStream size                 : 541 MiB (90%)\r\nWriting library             : x264 core 129 r2245 bc13772\r\n\r\nDefault                     : Yes\r\nForced                      : No\r\n\r\nAudio\r\nID                          : 2\r\nFormat                      : AAC\r\nFormat/Info                 : Advanced Audio Codec\r\nFormat profile              : LC\r\nCodec ID                    : A_AAC\r\nDuration                    : 1h 22mn\r\nBit rate                    : 96.0 Kbps\r\nChannel(s)                  : 2 channels\r\nChannel positions           : Front: L R\r\nSampling rate               : 48.0 KHz\r\nFrame rate                  : 46.875 fps (1024 spf)\r\nCompression mode            : Lossy\r\nDelay relative to video     : 1s 600ms\r\nStream size                 : 56.5 MiB (9%)\r\nDefault                     : Yes\r\nForced                      : No\r\n\r\nsource: https://thepiratebay.se/torrent/8246662/The_Little_Mermaid_(1989)_720p_BrRip_x264_-_YIFY\r\n\r\nNote: Initial speed will be slow. Please keep Seeding and speed will go up soon","torrent":{"xt":"urn:btih:2003ffd212ce611baf1b9d9c3cd25066b7e938f1","amp;dn":"The.Little.Mermaid.1989.720p.BRrip.cj4thee.Source-YIFY","amp;tr":["udp%3A%2F%2Ftracker.leechers-paradise.org%3A6969","udp%3A%2F%2Fzer0day.ch%3A1337","udp%3A%2F%2Fopen.demonii.com%3A1337","udp%3A%2F%2Ftracker.coppersurfer.tk%3A6969","udp%3A%2F%2Fexodus.desync.com%3A6969"],"infoHash":"2003ffd212ce611baf1b9d9c3cd25066b7e938f1","infoHashBuffer":{"type":"Buffer","data":[32,3,255,210,18,206,97,27,175,27,157,156,60,210,80,102,183,233,56,241]},"announce":[],"urlList":[]}}